<svg width="34" height="50" viewBox="0 0 34 50" fill="none" xmlns="http://www.w3.org/2000/svg">
<path d="M30.3571 7.99055C32.7857 11.1952 34 14.1534 34 17.6046C34 21.7953 32.3 25.7395 28.1714 30.1768C23.5571 35.1071 19.4286 40.5304 19.4286 45.9537C19.4286 46.9397 19.6714 47.9258 19.9143 49.1584C19.9143 49.4049 19.9143 49.6514 19.6714 49.8979C19.4286 50.1444 19.1857 49.8979 19.1857 49.6514C16.7571 46.4467 15.5429 43.4885 15.5429 40.0373C15.5429 35.8466 17.2429 31.9024 21.3714 27.4651C25.9857 22.5349 30.1143 17.1116 30.1143 11.6883C30.1143 10.7022 29.8714 9.71615 29.6286 8.48358C29.6286 8.23706 29.6286 7.99055 29.8714 7.74404C30.1143 7.74404 30.1143 7.74404 30.3571 7.99055ZM11.4143 0.595137C13.1143 2.81376 13.8429 5.2789 13.8429 7.49752C13.8429 10.7022 12.3857 13.6604 9.47143 16.865C6.07143 20.5628 2.91429 24.7535 2.91429 28.6977C2.91429 29.4372 3.15714 30.4233 3.4 30.9163C3.4 31.1628 3.4 31.1628 3.15714 31.4094C2.91429 31.6559 2.67143 31.4094 2.67143 31.4094C0.728571 28.9442 0 26.4791 0 24.2605C0 21.0558 1.45714 18.0976 4.37143 14.8929C7.77143 11.1952 10.9286 7.00449 10.9286 3.06027C10.9286 2.32073 10.6857 1.33468 10.4429 0.841651V0.348623C10.9286 0.348623 11.1714 0.348623 11.4143 0.595137ZM12.3857 19.8232C17 14.8929 21.1286 9.46963 21.1286 4.04633C21.1286 3.06027 20.8857 2.07422 20.6429 0.841651C20.6429 0.595137 20.6429 0.348623 20.8857 0.102109C21.1286 -0.144404 21.3714 0.102109 21.3714 0.348623C23.8 3.5533 25.0143 6.51147 25.0143 9.96266C25.0143 14.1534 23.3143 18.0976 19.1857 22.5349C14.5714 27.4651 10.4429 32.8884 10.4429 38.3117C10.4429 39.2978 10.6857 40.2839 10.9286 41.5164C10.9286 41.7629 10.9286 42.0095 10.6857 42.256C10.4429 42.5025 10.2 42.256 10.2 42.0095C7.77143 38.8048 6.55714 35.8466 6.55714 32.3954C6.55714 28.2047 8.25714 24.2605 12.3857 19.8232Z" fill="#0D3B24"/>
</svg>
