<svg width="32" height="15" viewBox="0 0 32 15" fill="none" xmlns="http://www.w3.org/2000/svg">
<path d="M1 6.36426C0.447715 6.36426 0 6.81197 0 7.36426C0 7.91654 0.447715 8.36426 1 8.36426V7.36426V6.36426ZM31.7071 8.07136C32.0976 7.68084 32.0976 7.04768 31.7071 6.65715L25.3431 0.29319C24.9526 -0.0973344 24.3195 -0.0973344 23.9289 0.29319C23.5384 0.683714 23.5384 1.31688 23.9289 1.7074L29.5858 7.36426L23.9289 13.0211C23.5384 13.4116 23.5384 14.0448 23.9289 14.4353C24.3195 14.8259 24.9526 14.8259 25.3431 14.4353L31.7071 8.07136ZM1 7.36426V8.36426H31V7.36426V6.36426H1V7.36426Z" fill="#445C32"/>
</svg>
