<svg width="28" height="28" viewBox="0 0 28 28" fill="none" xmlns="http://www.w3.org/2000/svg">
<path d="M21.875 21.875C22.6485 21.875 23.3904 22.1823 23.9374 22.7293C24.4844 23.2763 24.7917 24.0181 24.7917 24.7917C24.7917 25.5652 24.4844 26.3071 23.9374 26.8541C23.3904 27.401 22.6485 27.7083 21.875 27.7083C21.1015 27.7083 20.3596 27.401 19.8126 26.8541C19.2656 26.3071 18.9583 25.5652 18.9583 24.7917C18.9583 24.0181 19.2656 23.2763 19.8126 22.7293C20.3596 22.1823 21.1015 21.875 21.875 21.875ZM21.875 23.3333C21.4882 23.3333 21.1173 23.487 20.8438 23.7605C20.5703 24.034 20.4167 24.4049 20.4167 24.7917C20.4167 25.1784 20.5703 25.5494 20.8438 25.8229C21.1173 26.0964 21.4882 26.25 21.875 26.25C22.2618 26.25 22.6327 26.0964 22.9062 25.8229C23.1797 25.5494 23.3333 25.1784 23.3333 24.7917C23.3333 24.4049 23.1797 24.034 22.9062 23.7605C22.6327 23.487 22.2618 23.3333 21.875 23.3333ZM8.75 21.875C9.52355 21.875 10.2654 22.1823 10.8124 22.7293C11.3594 23.2763 11.6667 24.0181 11.6667 24.7917C11.6667 25.5652 11.3594 26.3071 10.8124 26.8541C10.2654 27.401 9.52355 27.7083 8.75 27.7083C7.97645 27.7083 7.23459 27.401 6.6876 26.8541C6.14062 26.3071 5.83333 25.5652 5.83333 24.7917C5.83333 24.0181 6.14062 23.2763 6.6876 22.7293C7.23459 22.1823 7.97645 21.875 8.75 21.875ZM8.75 23.3333C8.36323 23.3333 7.99229 23.487 7.7188 23.7605C7.44531 24.034 7.29167 24.4049 7.29167 24.7917C7.29167 25.1784 7.44531 25.5494 7.7188 25.8229C7.99229 26.0964 8.36323 26.25 8.75 26.25C9.13677 26.25 9.50771 26.0964 9.7812 25.8229C10.0547 25.5494 10.2083 25.1784 10.2083 24.7917C10.2083 24.4049 10.0547 24.034 9.7812 23.7605C9.50771 23.487 9.13677 23.3333 8.75 23.3333ZM24.7917 4.375H4.76875L8.4875 13.125H20.4167C20.8979 13.125 21.3208 12.8917 21.5833 12.5417L25.9583 6.70833C26.1479 6.46042 26.25 6.15417 26.25 5.83333C26.25 5.44656 26.0964 5.07563 25.8229 4.80214C25.5494 4.52865 25.1784 4.375 24.7917 4.375ZM20.4167 14.5833H8.56042L7.4375 16.8583L7.29167 17.5C7.29167 17.8868 7.44531 18.2577 7.7188 18.5312C7.99229 18.8047 8.36323 18.9583 8.75 18.9583H24.7917V20.4167H8.75C7.97645 20.4167 7.23459 20.1094 6.6876 19.5624C6.14062 19.0154 5.83333 18.2735 5.83333 17.5C5.8329 17.0052 5.95836 16.5184 6.19792 16.0854L7.24792 13.9417L1.95417 1.45833H0V0H2.91667L4.15625 2.91667H24.7917C25.5652 2.91667 26.3071 3.22396 26.8541 3.77094C27.401 4.31792 27.7083 5.05978 27.7083 5.83333C27.7083 6.5625 27.4604 7.175 27.0521 7.67083L22.8083 13.3437C22.2833 14.0875 21.4083 14.5833 20.4167 14.5833Z" fill="white"/>
</svg>
