<svg width="37" height="37" viewBox="0 0 37 37" fill="none" xmlns="http://www.w3.org/2000/svg">
<path d="M14.9505 35.8638C16.8297 35.8638 18.3531 34.3404 18.3531 32.4612C18.3531 30.582 16.8297 29.0586 14.9505 29.0586C13.0713 29.0586 11.5479 30.582 11.5479 32.4612C11.5479 34.3404 13.0713 35.8638 14.9505 35.8638Z" stroke="#0B1D14" stroke-width="1.7" stroke-linecap="round" stroke-linejoin="round"/>
<path d="M29.7752 35.8638C31.6544 35.8638 33.1778 34.3404 33.1778 32.4612C33.1778 30.582 31.6544 29.0586 29.7752 29.0586C27.896 29.0586 26.3726 30.582 26.3726 32.4612C26.3726 34.3404 27.896 35.8638 29.7752 35.8638Z" stroke="#0B1D14" stroke-width="1.7" stroke-linecap="round" stroke-linejoin="round"/>
<path d="M7.06312 5.46928L11.0839 18.1995C11.702 20.1559 12.01 21.1341 12.6041 21.8582C13.1242 22.4983 13.8024 22.9924 14.5685 23.2984C15.4387 23.6445 16.4628 23.6445 18.5152 23.6445H26.2266C28.279 23.6445 29.3032 23.6445 30.1714 23.2984C30.9395 22.9924 31.6156 22.4983 32.1377 21.8582C32.7298 21.1341 33.0379 20.1559 33.658 18.1995L34.4762 15.6071L34.9562 14.0748L35.6184 11.9744C35.8547 11.2253 35.9111 10.431 35.7833 9.65602C35.6554 8.88099 35.3467 8.14698 34.8823 7.51347C34.4179 6.87996 33.8107 6.36476 33.1101 6.00961C32.4095 5.65446 31.635 5.46935 30.8495 5.46928H7.06312ZM7.06312 5.46928L7.04111 5.39527C6.95664 5.11234 6.86325 4.83215 6.76106 4.55512C6.35609 3.53002 4.73916 3.50775 3.84998 2.85645C2.96079 2.20514 2.44949 0.933083 1.34998 0.856173C1.14394 0.84017 1.30406 0.858464 0.849976 0.858464" stroke="#0B1D14" stroke-width="1.7" stroke-linecap="round" stroke-linejoin="round"/>
</svg>
