<svg width="23" height="26" viewBox="0 0 23 26" fill="none" xmlns="http://www.w3.org/2000/svg">
<path opacity="0.2" d="M13.9287 13.257V24.1422C13.9287 24.3884 13.8309 24.6246 13.6567 24.7988C13.4826 24.9729 13.2464 25.0707 13.0001 25.0707H1.85728C1.61101 25.0707 1.37482 24.9729 1.20068 24.7988C1.02654 24.6246 0.928711 24.3884 0.928711 24.1422V13.257C0.928624 13.0885 0.974364 12.9232 1.06103 12.7788L3.44398 8.8068C3.52654 8.66939 3.64326 8.55569 3.7828 8.47677C3.92233 8.39785 4.07992 8.3564 4.24023 8.35645H10.6172C10.7775 8.3564 10.9351 8.39785 11.0746 8.47677C11.2142 8.55569 11.3309 8.66939 11.4134 8.8068L13.7964 12.7788C13.8831 12.9232 13.9288 13.0885 13.9287 13.257Z" fill="#8DBF9F"/>
<path d="M21.3571 17.6429C20.8646 17.6429 20.3922 17.4472 20.0439 17.0989C19.6957 16.7506 19.5 16.2783 19.5 15.7857V6.5C19.5 4.77609 18.8152 3.12279 17.5962 1.90381C16.3772 0.684819 14.7239 0 13 0C11.2761 0 9.62279 0.684819 8.40381 1.90381C7.18482 3.12279 6.5 4.77609 6.5 6.5V7.42857H4.24009C3.91956 7.42961 3.6047 7.51312 3.32579 7.67107C3.04689 7.82902 2.81333 8.0561 2.64759 8.33045L0.264643 12.3036C0.0920339 12.5919 0.000594041 12.9216 0 13.2577V24.1429C0 24.6354 0.195663 25.1078 0.543944 25.4561C0.892226 25.8043 1.3646 26 1.85714 26H13C13.4925 26 13.9649 25.8043 14.3132 25.4561C14.6615 25.1078 14.8571 24.6354 14.8571 24.1429V13.2577C14.857 12.9208 14.7655 12.5903 14.5925 12.3013L12.2096 8.33045C12.0438 8.0561 11.8103 7.82902 11.5313 7.67107C11.2524 7.51312 10.9376 7.42961 10.6171 7.42857H8.35714V6.5C8.35714 5.26864 8.8463 4.08771 9.717 3.217C10.5877 2.3463 11.7686 1.85714 13 1.85714C14.2314 1.85714 15.4123 2.3463 16.283 3.217C17.1537 4.08771 17.6429 5.26864 17.6429 6.5V15.7857C17.6429 16.7708 18.0342 17.7155 18.7307 18.4121C19.4273 19.1087 20.3721 19.5 21.3571 19.5C21.6034 19.5 21.8396 19.4022 22.0137 19.228C22.1879 19.0539 22.2857 18.8177 22.2857 18.5714C22.2857 18.3252 22.1879 18.089 22.0137 17.9148C21.8396 17.7407 21.6034 17.6429 21.3571 17.6429ZM10.6171 9.28571L13 13.2577V24.1429H1.85714V13.2577L4.24009 9.28571H6.5V14.8571C6.5 15.1034 6.59783 15.3396 6.77197 15.5137C6.94611 15.6879 7.1823 15.7857 7.42857 15.7857C7.67484 15.7857 7.91103 15.6879 8.08517 15.5137C8.25931 15.3396 8.35714 15.1034 8.35714 14.8571V9.28571H10.6171Z" fill="#0D3B24"/>
</svg>
