<svg width="39" height="39" viewBox="0 0 39 39" fill="none" xmlns="http://www.w3.org/2000/svg">
<path d="M28.05 22.7744C30.6094 22.7744 33.0636 23.7918 34.8733 25.6016C36.683 27.4113 37.7004 29.8655 37.7004 32.4248C37.7004 33.8238 37.1448 35.166 36.1555 36.1553C35.1663 37.1445 33.8241 37.7002 32.425 37.7002H6.17505C4.77603 37.7002 3.43383 37.1445 2.44458 36.1553C1.45533 35.166 0.899658 33.8238 0.899658 32.4248C0.899658 29.8655 1.91708 27.4113 3.72681 25.6016C5.53653 23.7918 7.99071 22.7744 10.55 22.7744H28.05Z" stroke="#0B1D14" stroke-width="1.8" stroke-linejoin="round"/>
<path d="M19.3 0.899414C23.4215 0.899414 26.7629 4.24088 26.7629 8.3623C26.7629 12.4837 23.4215 15.8252 19.3 15.8252C15.1786 15.8252 11.8372 12.4837 11.8372 8.3623C11.8372 4.24088 15.1786 0.899414 19.3 0.899414Z" stroke="#0B1D14" stroke-width="1.8"/>
</svg>
