<svg width="15" height="15" viewBox="0 0 15 15" fill="none" xmlns="http://www.w3.org/2000/svg">
<path d="M14.7911 14.0791L10.2736 9.53395C11.1156 8.52553 11.6231 7.22817 11.6231 5.81154C11.6231 2.60194 9.02114 0 5.81154 0C2.60194 0 0 2.60194 0 5.81154C0 9.02114 2.60194 11.6231 5.81154 11.6231C7.26978 11.6231 8.60178 11.0847 9.62229 10.1972L14.1334 14.7367C14.315 14.9182 14.6095 14.9182 14.7911 14.7367C14.9724 14.5551 14.9724 14.2608 14.7911 14.0791H14.7911ZM5.81154 10.7009C3.11127 10.7009 0.922176 8.51182 0.922176 5.81154C0.922176 3.11127 3.11127 0.922176 5.81154 0.922176C8.51182 0.922176 10.7009 3.11127 10.7009 5.81154C10.7009 8.51182 8.51182 10.7009 5.81154 10.7009Z" fill="#656565"/>
</svg>
