<svg width="50" height="48" viewBox="0 0 50 48" fill="none" xmlns="http://www.w3.org/2000/svg">
<path d="M36.5385 0C29.1154 0 23.0769 6.03072 23.0769 13.44C23.0769 20.8493 29.1154 26.88 36.5385 26.88C43.9615 26.88 50 20.8493 50 13.44C50 6.03072 43.9615 0 36.5385 0ZM36.5385 3.84C41.8404 3.84 46.1538 8.14656 46.1538 13.44C46.1538 15.3926 45.5577 17.2051 44.55 18.7238L31.2462 5.44128C32.8132 4.39747 34.6547 3.84029 36.5385 3.84ZM28.5269 8.15616L41.8308 21.4426C40.2628 22.484 38.4217 23.0397 36.5385 23.04C31.2365 23.04 26.9231 18.7334 26.9231 13.44C26.9231 11.4874 27.5192 9.67488 28.5269 8.15616ZM13.4615 21.12C6.03846 21.12 0 27.1507 0 34.56C0 41.9693 6.03846 48 13.4615 48C20.8846 48 26.9231 41.9693 26.9231 34.56C26.9231 27.1507 20.8846 21.12 13.4615 21.12ZM13.4615 24.96C15.6766 24.964 17.8225 25.7299 19.5382 27.1288C21.2538 28.5276 22.4342 30.4739 22.8808 32.64H4.04231C4.93462 28.2624 8.81923 24.96 13.4615 24.96ZM4.04231 36.48H22.8808C22.4342 38.6461 21.2538 40.5924 19.5382 41.9912C17.8225 43.3901 15.6766 44.156 13.4615 44.16C11.2465 44.156 9.10053 43.3901 7.38492 41.9912C5.6693 40.5924 4.48885 38.6461 4.04231 36.48Z" fill="#0D3B24"/>
</svg>
